# xmcd
#
# Track frame offsets:
#	150
#	15330
#	30495
#	38085
#	50092
#	62135
#	78132
#	99685
#	110957
#	120952
#	129360
#	145770
#	154787
#	167682
#
# Disc length: 2483 seconds
#
# Revision: 1
# Processed by: cddbd v1.5.1PL0 Copyright (c) Steve Scherf et al.
# Submitted via: CDex 1.50Beta5
#
DISCID=ad09b10e
DTITLE=TVサントラ - 刑事貴族2
DYEAR=1991
DGENRE=Soundtrack
TTITLE0=TVサントラ/Opening Theme’91
TTITLE1=TVサントラ/Doin’ My Thing
TTITLE2=TVサントラ/Morning Light
TTITLE3=TVサントラ/Beware
TTITLE4=TVサントラ/Capture the Feeling
TTITLE5=TVサントラ/Masterplan
TTITLE6=TVサントラ/On My Way
TTITLE7=TVサントラ/Wild Wild
TTITLE8=TVサントラ/Swinging With Danger
TTITLE9=TVサントラ/Under Arrest
TTITLE10=TVサントラ/Taking in the Twilight
TTITLE11=TVサントラ/Sheaking Up
TTITLE12=TVサントラ/Can Live it Up Now
TTITLE13=矢沢永吉/ラスト・シーン
EXTD=
EXTT0=
EXTT1=
EXTT2=
EXTT3=
EXTT4=
EXTT5=
EXTT6=
EXTT7=
EXTT8=
EXTT9=
EXTT10=
EXTT11=
EXTT12=
EXTT13=
PLAYORDER=
